<svg xmlns="http://www.w3.org/2000/svg" width="960" height="540" viewBox="0 0 960 540" fill="none"><defs><linearGradient id="bg" x1="0" y1="0" x2="960" y2="540"><stop stop-color="#06162d"/><stop offset="1" stop-color="#0c2d57"/></linearGradient><linearGradient id="g" x1="0" y1="0" x2="1" y2="1"><stop stop-color="#22d2ff"/><stop offset="1" stop-color="#0e6ddd"/></linearGradient></defs><rect width="960" height="540" rx="36" fill="url(#bg)"/><g opacity="0.1" stroke="#fff"><path d="M0 45H960"/><path d="M0 105H960"/><path d="M0 165H960"/><path d="M0 225H960"/><path d="M0 285H960"/><path d="M0 345H960"/><path d="M0 405H960"/><path d="M0 465H960"/><path d="M65 0V540"/><path d="M125 0V540"/><path d="M185 0V540"/><path d="M245 0V540"/><path d="M305 0V540"/><path d="M365 0V540"/><path d="M425 0V540"/><path d="M485 0V540"/><path d="M545 0V540"/><path d="M605 0V540"/><path d="M665 0V540"/><path d="M725 0V540"/><path d="M785 0V540"/><path d="M845 0V540"/><path d="M905 0V540"/></g><rect x="90" y="120" width="220" height="300" rx="28" fill="#081a31" stroke="#1d4e81"/><rect x="148" y="164" width="104" height="38" rx="8" fill="url(#g)"/><rect x="178" y="225" width="44" height="124" rx="18" fill="#edf3f8"/><path d="M184 370h60" stroke="#6e88a3" stroke-width="20" stroke-linecap="round"/><rect x="420" y="106" width="160" height="276" rx="20" fill="#0b2343" stroke="#234c79"/><path d="M500 144v198" stroke="#f5f8fc" stroke-width="18" stroke-linecap="round"/><path d="M438 398h126" stroke="#5e7896" stroke-width="18" stroke-linecap="round"/><rect x="680" y="146" width="144" height="198" rx="18" fill="#10264a" stroke="#234c79"/><path d="M720 296l34-42 36 28 40-58 34 46" stroke="#20cfff" stroke-width="10" fill="none" stroke-linecap="round" stroke-linejoin="round"/><path d="M720 338l34-42 36 28 40-58 34 46" stroke="#1b4d7d" stroke-width="10" opacity="0.45" fill="none" stroke-linecap="round" stroke-linejoin="round"/><circle cx="808" cy="102" r="72" fill="#24aaff" opacity="0.12"/></svg>