<svg xmlns="http://www.w3.org/2000/svg" width="960" height="540" viewBox="0 0 960 540" fill="none"><defs><linearGradient id="bg" x1="0" y1="0" x2="960" y2="540"><stop stop-color="#06162d"/><stop offset="1" stop-color="#0c2d57"/></linearGradient></defs><rect width="960" height="540" rx="36" fill="url(#bg)"/><g opacity="0.1" stroke="#fff"><path d="M0 45H960"/><path d="M0 105H960"/><path d="M0 165H960"/><path d="M0 225H960"/><path d="M0 285H960"/><path d="M0 345H960"/><path d="M0 405H960"/><path d="M0 465H960"/><path d="M65 0V540"/><path d="M125 0V540"/><path d="M185 0V540"/><path d="M245 0V540"/><path d="M305 0V540"/><path d="M365 0V540"/><path d="M425 0V540"/><path d="M485 0V540"/><path d="M545 0V540"/><path d="M605 0V540"/><path d="M665 0V540"/><path d="M725 0V540"/><path d="M785 0V540"/><path d="M845 0V540"/><path d="M905 0V540"/></g><circle cx="116" cy="270" r="76" fill="#dfe8f0" opacity="0.75"/><circle cx="116" cy="270" r="44" fill="#06355b"/><circle cx="844" cy="270" r="76" fill="#dfe8f0" opacity="0.75"/><circle cx="844" cy="270" r="44" fill="#06355b"/><rect x="152" y="210" width="656" height="120" rx="60" fill="#0d1f35" stroke="#acc6de" stroke-width="8"/><rect x="174" y="230" width="612" height="80" rx="40" fill="#14263f"/><g opacity="0.35" stroke="#5c6f88" stroke-width="8"><path d="M210 230v80"/><path d="M280 230v80"/><path d="M350 230v80"/><path d="M420 230v80"/><path d="M490 230v80"/><path d="M560 230v80"/><path d="M630 230v80"/><path d="M700 230v80"/></g><g opacity="0.35" stroke="#56708e" stroke-width="6"><path d="M168 258h620"/><path d="M168 282h620"/></g><g opacity="0.2" stroke="#7fa8d0" stroke-width="8"><path d="M182 300l54-70"/><path d="M230 300l54-70"/><path d="M278 300l54-70"/><path d="M326 300l54-70"/><path d="M374 300l54-70"/><path d="M422 300l54-70"/><path d="M470 300l54-70"/><path d="M518 300l54-70"/><path d="M566 300l54-70"/><path d="M614 300l54-70"/><path d="M662 300l54-70"/><path d="M710 300l54-70"/></g></svg>