<svg xmlns="http://www.w3.org/2000/svg" width="960" height="540" viewBox="0 0 960 540" fill="none"><defs><linearGradient id="bg" x1="0" y1="0" x2="960" y2="540"><stop stop-color="#06162d"/><stop offset="1" stop-color="#0c2d57"/></linearGradient></defs><rect width="960" height="540" rx="36" fill="url(#bg)"/><g opacity="0.1" stroke="#fff"><path d="M0 45H960"/><path d="M0 105H960"/><path d="M0 165H960"/><path d="M0 225H960"/><path d="M0 285H960"/><path d="M0 345H960"/><path d="M0 405H960"/><path d="M0 465H960"/><path d="M65 0V540"/><path d="M125 0V540"/><path d="M185 0V540"/><path d="M245 0V540"/><path d="M305 0V540"/><path d="M365 0V540"/><path d="M425 0V540"/><path d="M485 0V540"/><path d="M545 0V540"/><path d="M605 0V540"/><path d="M665 0V540"/><path d="M725 0V540"/><path d="M785 0V540"/><path d="M845 0V540"/><path d="M905 0V540"/></g><path d="M164 356c0-84 68-152 152-152h308c84 0 152 68 152 152" stroke="#eef5fb" stroke-width="44" stroke-linecap="round"/><path d="M286 356h364" stroke="#0a203b" stroke-width="100" stroke-linecap="round"/><path d="M336 356h264" stroke="#dfe8f0" stroke-width="72" stroke-linecap="round" opacity="0.25"/><rect x="82" y="376" width="190" height="36" rx="10" fill="#5c738e"/><rect x="688" y="376" width="190" height="36" rx="10" fill="#5c738e"/><circle cx="786" cy="238" r="110" stroke="#dfe8f0" stroke-width="6" opacity="0.45"/><rect x="286" y="272" width="218" height="86" rx="42" fill="#162843" stroke="#c9d8e6" stroke-width="4"/><g opacity="0.25" stroke="#87b3d8" stroke-width="5"><path d="M308 340l52-58"/><path d="M350 340l52-58"/><path d="M392 340l52-58"/><path d="M434 340l52-58"/></g></svg>