<svg xmlns="http://www.w3.org/2000/svg" viewBox="0 0 1200 760" fill="none"><defs><linearGradient id="a" x1="0" y1="0" x2="1" y2="1"><stop stop-color="#071A31"/><stop offset="0.55" stop-color="#0E3A74"/><stop offset="1" stop-color="#1E5FB3"/></linearGradient></defs><rect width="1200" height="760" rx="36" fill="url(#a)"/><g opacity="0.14"><path d="M0 80H1200" stroke="white"/><path d="M0 160H1200" stroke="white"/><path d="M0 240H1200" stroke="white"/><path d="M0 320H1200" stroke="white"/><path d="M0 400H1200" stroke="white"/><path d="M0 480H1200" stroke="white"/><path d="M0 560H1200" stroke="white"/><path d="M0 640H1200" stroke="white"/></g><g transform="translate(640 120)"><rect width="420" height="520" rx="30" fill="rgba(255,255,255,0.08)" stroke="rgba(255,255,255,0.18)"/><rect x="38" y="48" width="344" height="88" rx="22" fill="rgba(255,255,255,0.11)"/><rect x="52" y="188" width="316" height="260" rx="28" fill="rgba(255,255,255,0.08)"/><path d="M142 250H280" stroke="#B9DCFF" stroke-width="14" stroke-linecap="round"/><path d="M142 296H280" stroke="#B9DCFF" stroke-width="14" stroke-linecap="round"/><path d="M142 342H280" stroke="#B9DCFF" stroke-width="14" stroke-linecap="round"/><path d="M142 388H280" stroke="#B9DCFF" stroke-width="14" stroke-linecap="round"/><rect x="88" y="224" width="36" height="36" rx="10" fill="#8EC5FF"/><rect x="88" y="270" width="36" height="36" rx="10" fill="#8EC5FF"/><rect x="88" y="316" width="36" height="36" rx="10" fill="#8EC5FF"/><rect x="88" y="362" width="36" height="36" rx="10" fill="#8EC5FF"/><rect x="52" y="470" width="190" height="26" rx="13" fill="rgba(255,255,255,0.14)"/></g><circle cx="860" cy="130" r="70" fill="#8EC5FF" fill-opacity="0.22"/><circle cx="1000" cy="190" r="40" fill="#8EC5FF" fill-opacity="0.18"/></svg>