<svg xmlns="http://www.w3.org/2000/svg" viewBox="0 0 1200 760" fill="none"><defs><linearGradient id="b" x1="0" y1="0" x2="1" y2="1"><stop stop-color="#081A31"/><stop offset="0.58" stop-color="#0F3E7A"/><stop offset="1" stop-color="#266BC3"/></linearGradient></defs><rect width="1200" height="760" rx="36" fill="url(#b)"/><g opacity="0.13"><path d="M120 0V760" stroke="white"/><path d="M240 0V760" stroke="white"/><path d="M360 0V760" stroke="white"/><path d="M480 0V760" stroke="white"/><path d="M600 0V760" stroke="white"/><path d="M720 0V760" stroke="white"/><path d="M840 0V760" stroke="white"/><path d="M960 0V760" stroke="white"/><path d="M1080 0V760" stroke="white"/></g><g transform="translate(660 150)"><rect width="330" height="430" rx="28" fill="rgba(255,255,255,0.08)" stroke="rgba(255,255,255,0.18)"/><circle cx="165" cy="122" r="86" fill="rgba(142,197,255,0.2)"/><circle cx="165" cy="122" r="54" fill="#9ACBFF"/><path d="M138 118L160 140L196 98" stroke="#0A2A55" stroke-width="14" stroke-linecap="round" stroke-linejoin="round"/><rect x="58" y="246" width="214" height="20" rx="10" fill="rgba(255,255,255,0.18)"/><rect x="58" y="286" width="170" height="20" rx="10" fill="rgba(255,255,255,0.18)"/><rect x="58" y="326" width="190" height="20" rx="10" fill="rgba(255,255,255,0.18)"/></g><circle cx="880" cy="92" r="54" fill="#8EC5FF" fill-opacity="0.2"/></svg>