<svg xmlns="http://www.w3.org/2000/svg" width="560" height="560" viewBox="0 0 560 560" role="img" aria-label="icon-analysis">
  <defs>
    <linearGradient id="bg" x1="0" y1="0" x2="1" y2="1"><stop offset="0" stop-color="#06172e"/><stop offset="0.55" stop-color="#0a2f5c"/><stop offset="1" stop-color="#030814"/></linearGradient>
    <linearGradient id="blue" x1="0" y1="0" x2="1" y2="1"><stop offset="0" stop-color="#24d2ff"/><stop offset="1" stop-color="#0a62c8"/></linearGradient>
    <linearGradient id="metal" x1="0" y1="0" x2="1" y2="0"><stop offset="0" stop-color="#51647b"/><stop offset="0.28" stop-color="#d7e7f3"/><stop offset="0.55" stop-color="#73869c"/><stop offset="1" stop-color="#f2f7fb"/></linearGradient>
    <linearGradient id="heat" x1="0" y1="0" x2="0" y2="1"><stop offset="0" stop-color="#fff2b5"/><stop offset="0.45" stop-color="#ff9b35"/><stop offset="1" stop-color="#ff4b1f"/></linearGradient>
    <pattern id="grid" width="44" height="44" patternUnits="userSpaceOnUse"><path d="M44 0H0v44" fill="none" stroke="#7ec9ff" stroke-opacity=".13" stroke-width="1"/></pattern>
    <pattern id="carbon" width="18" height="18" patternUnits="userSpaceOnUse" patternTransform="rotate(35)"><rect width="9" height="18" fill="#101a28"/><rect x="9" width="9" height="18" fill="#192b42"/></pattern>
    <filter id="shadow" x="-30%" y="-30%" width="160%" height="160%"><feDropShadow dx="0" dy="20" stdDeviation="18" flood-color="#000" flood-opacity=".38"/></filter>
    <filter id="glow" x="-50%" y="-50%" width="200%" height="200%"><feGaussianBlur stdDeviation="10" result="b"/><feMerge><feMergeNode in="b"/><feMergeNode in="SourceGraphic"/></feMerge></filter>
  </defs>
  <rect width="560" height="560" rx="34" fill="url(#bg)"/>
  <rect width="560" height="560" rx="34" fill="url(#grid)"/>
  <g transform="translate(105 85)" filter="url(#shadow)"><rect x="0" y="0" width="350" height="265" rx="24" fill="#e8f2fa"/><rect x="35" y="35" width="280" height="195" rx="15" fill="#6f8296"/><g fill="#23374d" opacity=".5"><circle cx="80" cy="85" r="24"/><circle cx="145" cy="140" r="34"/><circle cx="222" cy="95" r="22"/><circle cx="264" cy="170" r="28"/></g><path d="M210 300h116v70h-180v-70h64z" fill="#0d2a4b"/><circle cx="236" cy="336" r="24" fill="#24d2ff"/></g>
</svg>
