<svg xmlns="http://www.w3.org/2000/svg" width="1280" height="760" viewBox="0 0 1280 760" role="img" aria-label="autoclave composite process">
  <defs>
    <linearGradient id="bg" x1="0" y1="0" x2="1" y2="1"><stop offset="0" stop-color="#06172e"/><stop offset="0.55" stop-color="#0a2f5c"/><stop offset="1" stop-color="#030814"/></linearGradient>
    <linearGradient id="blue" x1="0" y1="0" x2="1" y2="1"><stop offset="0" stop-color="#24d2ff"/><stop offset="1" stop-color="#0a62c8"/></linearGradient>
    <linearGradient id="metal" x1="0" y1="0" x2="1" y2="0"><stop offset="0" stop-color="#51647b"/><stop offset="0.28" stop-color="#d7e7f3"/><stop offset="0.55" stop-color="#73869c"/><stop offset="1" stop-color="#f2f7fb"/></linearGradient>
    <linearGradient id="heat" x1="0" y1="0" x2="0" y2="1"><stop offset="0" stop-color="#fff2b5"/><stop offset="0.45" stop-color="#ff9b35"/><stop offset="1" stop-color="#ff4b1f"/></linearGradient>
    <pattern id="grid" width="44" height="44" patternUnits="userSpaceOnUse"><path d="M44 0H0v44" fill="none" stroke="#7ec9ff" stroke-opacity=".13" stroke-width="1"/></pattern>
    <pattern id="carbon" width="18" height="18" patternUnits="userSpaceOnUse" patternTransform="rotate(35)"><rect width="9" height="18" fill="#101a28"/><rect x="9" width="9" height="18" fill="#192b42"/></pattern>
    <filter id="shadow" x="-30%" y="-30%" width="160%" height="160%"><feDropShadow dx="0" dy="20" stdDeviation="18" flood-color="#000" flood-opacity=".38"/></filter>
    <filter id="glow" x="-50%" y="-50%" width="200%" height="200%"><feGaussianBlur stdDeviation="10" result="b"/><feMerge><feMergeNode in="b"/><feMergeNode in="SourceGraphic"/></feMerge></filter>
  </defs>
  <rect width="1280" height="760" rx="34" fill="url(#bg)"/>
  <rect width="1280" height="760" rx="34" fill="url(#grid)"/>

  <g transform="translate(96 150)" filter="url(#shadow)">
    <rect x="140" y="10" width="850" height="460" rx="230" fill="#dce9f3" stroke="#ffffff" stroke-width="8"/>
    <rect x="240" y="70" width="650" height="340" rx="170" fill="#07192f" stroke="#89ddff" stroke-opacity=".6" stroke-width="5"/>
    <circle cx="970" cy="240" r="210" fill="none" stroke="#ffffff" stroke-opacity=".55" stroke-width="8"/>
    <rect x="45" y="345" width="1045" height="70" rx="22" fill="#1d334d"/>
    <rect x="70" y="410" width="155" height="42" rx="10" fill="#5f7890"/>
    <rect x="820" y="410" width="155" height="42" rx="10" fill="#5f7890"/>
    <rect x="270" y="178" width="350" height="124" rx="62" fill="url(#carbon)" stroke="#e7f8ff" stroke-width="4"/>
    <line x1="270" y1="240" x2="620" y2="240" stroke="#ffffff" stroke-opacity=".38" stroke-width="4"/>
  </g>
  <g transform="translate(116 88)">
    <text x="0" y="0" font-family="Arial" font-size="30" font-weight="900" fill="#ffffff">AUTOCLAVE PROCESS SUPPORT</text>
    <text x="0" y="36" font-family="Arial" font-size="18" font-weight="700" fill="#9fe8ff">prepreg composite part · curing condition · specimen preparation</text>
  </g>

</svg>
