<svg xmlns="http://www.w3.org/2000/svg" width="1280" height="760" viewBox="0 0 1280 760" role="img" aria-label="composite pressure vessel">
  <defs>
    <linearGradient id="bg" x1="0" y1="0" x2="1" y2="1"><stop offset="0" stop-color="#06172e"/><stop offset="0.55" stop-color="#0a2f5c"/><stop offset="1" stop-color="#030814"/></linearGradient>
    <linearGradient id="blue" x1="0" y1="0" x2="1" y2="1"><stop offset="0" stop-color="#24d2ff"/><stop offset="1" stop-color="#0a62c8"/></linearGradient>
    <linearGradient id="metal" x1="0" y1="0" x2="1" y2="0"><stop offset="0" stop-color="#51647b"/><stop offset="0.28" stop-color="#d7e7f3"/><stop offset="0.55" stop-color="#73869c"/><stop offset="1" stop-color="#f2f7fb"/></linearGradient>
    <linearGradient id="heat" x1="0" y1="0" x2="0" y2="1"><stop offset="0" stop-color="#fff2b5"/><stop offset="0.45" stop-color="#ff9b35"/><stop offset="1" stop-color="#ff4b1f"/></linearGradient>
    <pattern id="grid" width="44" height="44" patternUnits="userSpaceOnUse"><path d="M44 0H0v44" fill="none" stroke="#7ec9ff" stroke-opacity=".13" stroke-width="1"/></pattern>
    <pattern id="carbon" width="18" height="18" patternUnits="userSpaceOnUse" patternTransform="rotate(35)"><rect width="9" height="18" fill="#101a28"/><rect x="9" width="9" height="18" fill="#192b42"/></pattern>
    <filter id="shadow" x="-30%" y="-30%" width="160%" height="160%"><feDropShadow dx="0" dy="20" stdDeviation="18" flood-color="#000" flood-opacity=".38"/></filter>
    <filter id="glow" x="-50%" y="-50%" width="200%" height="200%"><feGaussianBlur stdDeviation="10" result="b"/><feMerge><feMergeNode in="b"/><feMergeNode in="SourceGraphic"/></feMerge></filter>
  </defs>
  <rect width="1280" height="760" rx="34" fill="url(#bg)"/>
  <rect width="1280" height="760" rx="34" fill="url(#grid)"/>

  <g transform="translate(88 260)" filter="url(#shadow)">
    <rect x="120" y="56" width="875" height="178" rx="89" fill="url(#carbon)" stroke="#e8f7ff" stroke-width="6"/>
    <ellipse cx="126" cy="145" rx="86" ry="88" fill="#c8d8e5" stroke="#ffffff" stroke-width="6"/>
    <ellipse cx="994" cy="145" rx="86" ry="88" fill="#c8d8e5" stroke="#ffffff" stroke-width="6"/>
    <circle cx="126" cy="145" r="48" fill="#071a30" stroke="#92dfff" stroke-width="4"/>
    <circle cx="994" cy="145" r="48" fill="#071a30" stroke="#92dfff" stroke-width="4"/>
    <g stroke="#ffffff" stroke-opacity=".65" stroke-width="3">
      <path d="M250 73v144M370 62v166M490 57v176M610 57v176M730 62v166M850 73v144"/>
      <path d="M212 92h680M200 145h704M212 198h680"/>
    </g>
  </g>
  <g transform="translate(180 104)">
    <text x="0" y="0" font-family="Arial" font-size="30" font-weight="900" fill="#ffffff">COMPOSITE PRESSURE VESSEL</text>
    <text x="0" y="38" font-family="Arial" font-size="18" font-weight="700" fill="#9fe8ff">Filament Winding · Liner · Burst / Mechanical Property Review</text>
  </g>

</svg>
