<svg xmlns="http://www.w3.org/2000/svg" width="1280" height="760" viewBox="0 0 1280 760" role="img" aria-label="technical test report and data">
  <defs>
    <linearGradient id="bg" x1="0" y1="0" x2="1" y2="1"><stop offset="0" stop-color="#06172e"/><stop offset="0.55" stop-color="#0a2f5c"/><stop offset="1" stop-color="#030814"/></linearGradient>
    <linearGradient id="blue" x1="0" y1="0" x2="1" y2="1"><stop offset="0" stop-color="#24d2ff"/><stop offset="1" stop-color="#0a62c8"/></linearGradient>
    <linearGradient id="metal" x1="0" y1="0" x2="1" y2="0"><stop offset="0" stop-color="#51647b"/><stop offset="0.28" stop-color="#d7e7f3"/><stop offset="0.55" stop-color="#73869c"/><stop offset="1" stop-color="#f2f7fb"/></linearGradient>
    <linearGradient id="heat" x1="0" y1="0" x2="0" y2="1"><stop offset="0" stop-color="#fff2b5"/><stop offset="0.45" stop-color="#ff9b35"/><stop offset="1" stop-color="#ff4b1f"/></linearGradient>
    <pattern id="grid" width="44" height="44" patternUnits="userSpaceOnUse"><path d="M44 0H0v44" fill="none" stroke="#7ec9ff" stroke-opacity=".13" stroke-width="1"/></pattern>
    <pattern id="carbon" width="18" height="18" patternUnits="userSpaceOnUse" patternTransform="rotate(35)"><rect width="9" height="18" fill="#101a28"/><rect x="9" width="9" height="18" fill="#192b42"/></pattern>
    <filter id="shadow" x="-30%" y="-30%" width="160%" height="160%"><feDropShadow dx="0" dy="20" stdDeviation="18" flood-color="#000" flood-opacity=".38"/></filter>
    <filter id="glow" x="-50%" y="-50%" width="200%" height="200%"><feGaussianBlur stdDeviation="10" result="b"/><feMerge><feMergeNode in="b"/><feMergeNode in="SourceGraphic"/></feMerge></filter>
  </defs>
  <rect width="1280" height="760" rx="34" fill="url(#bg)"/>
  <rect width="1280" height="760" rx="34" fill="url(#grid)"/>

  <g transform="translate(180 95)" filter="url(#shadow)">
    <rect x="0" y="0" width="410" height="530" rx="28" fill="#f2f7fb"/>
    <rect x="50" y="54" width="310" height="28" rx="8" fill="#0a2f5c"/>
    <rect x="50" y="112" width="210" height="18" rx="6" fill="#8aa3ba"/>
    <rect x="50" y="154" width="310" height="150" rx="18" fill="#e1edf6"/>
    <polyline points="78,252 130,205 183,228 234,172 310,248" fill="none" stroke="#0a62c8" stroke-width="8"/>
    <g fill="#0a2f5c" opacity=".65"><rect x="50" y="342" width="310" height="18" rx="6"/><rect x="50" y="383" width="260" height="18" rx="6"/><rect x="50" y="424" width="305" height="18" rx="6"/><rect x="50" y="465" width="225" height="18" rx="6"/></g>
  </g>
  <g transform="translate(700 150)" filter="url(#shadow)">
    <rect width="360" height="310" rx="26" fill="#081427" stroke="#66d8ff" stroke-opacity=".45"/>
    <polyline points="42,216 92,152 144,184 210,105 314,186" fill="none" stroke="#24d2ff" stroke-width="8"/>
    <path d="M40 240h280" stroke="#6a8aa7" stroke-width="6"/>
    <path d="M40 82h280M40 124h190" stroke="#6a8aa7" stroke-opacity=".55" stroke-width="10" stroke-linecap="round"/>
  </g>
  <text x="180" y="680" font-family="Arial" font-size="30" font-weight="900" fill="#ffffff">DATA REVIEW AND TECHNICAL REPORT</text>

</svg>
