<svg xmlns="http://www.w3.org/2000/svg" width="1280" height="760" viewBox="0 0 1280 760" role="img" aria-label="materials testing laboratory equipment">
  <defs>
    <linearGradient id="bg" x1="0" y1="0" x2="1" y2="1"><stop offset="0" stop-color="#06172e"/><stop offset="0.55" stop-color="#0a2f5c"/><stop offset="1" stop-color="#030814"/></linearGradient>
    <linearGradient id="blue" x1="0" y1="0" x2="1" y2="1"><stop offset="0" stop-color="#24d2ff"/><stop offset="1" stop-color="#0a62c8"/></linearGradient>
    <linearGradient id="metal" x1="0" y1="0" x2="1" y2="0"><stop offset="0" stop-color="#51647b"/><stop offset="0.28" stop-color="#d7e7f3"/><stop offset="0.55" stop-color="#73869c"/><stop offset="1" stop-color="#f2f7fb"/></linearGradient>
    <linearGradient id="heat" x1="0" y1="0" x2="0" y2="1"><stop offset="0" stop-color="#fff2b5"/><stop offset="0.45" stop-color="#ff9b35"/><stop offset="1" stop-color="#ff4b1f"/></linearGradient>
    <pattern id="grid" width="44" height="44" patternUnits="userSpaceOnUse"><path d="M44 0H0v44" fill="none" stroke="#7ec9ff" stroke-opacity=".13" stroke-width="1"/></pattern>
    <pattern id="carbon" width="18" height="18" patternUnits="userSpaceOnUse" patternTransform="rotate(35)"><rect width="9" height="18" fill="#101a28"/><rect x="9" width="9" height="18" fill="#192b42"/></pattern>
    <filter id="shadow" x="-30%" y="-30%" width="160%" height="160%"><feDropShadow dx="0" dy="20" stdDeviation="18" flood-color="#000" flood-opacity=".38"/></filter>
    <filter id="glow" x="-50%" y="-50%" width="200%" height="200%"><feGaussianBlur stdDeviation="10" result="b"/><feMerge><feMergeNode in="b"/><feMergeNode in="SourceGraphic"/></feMerge></filter>
  </defs>
  <rect width="1280" height="760" rx="34" fill="url(#bg)"/>
  <rect width="1280" height="760" rx="34" fill="url(#grid)"/>

  <circle cx="1040" cy="140" r="150" fill="#24d2ff" opacity=".14"/>
  <g transform="translate(160 115)" filter="url(#shadow)">
    <rect width="960" height="500" rx="28" fill="#0b1525" stroke="#6cd8ff" stroke-opacity=".35"/>
    <rect x="55" y="70" width="170" height="350" rx="18" fill="#111f35" stroke="#83dfff" stroke-opacity=".3"/>
    <rect x="92" y="105" width="96" height="38" rx="9" fill="#26caff" opacity=".82"/>
    <rect x="121" y="160" width="38" height="180" rx="14" fill="#e2eef7"/>
    <rect x="384" y="105" width="88" height="280" rx="16" fill="#e4edf4"/>
    <rect x="405" y="128" width="46" height="235" rx="10" fill="#0e2d50"/>
    <rect x="280" y="396" width="410" height="30" rx="10" fill="#5b718a"/>
    <rect x="755" y="90" width="130" height="310" rx="18" fill="#13233a" stroke="#83dfff" stroke-opacity=".25"/>
    <polyline points="742,350 775,305 814,334 853,270 888,318" fill="none" stroke="#24d2ff" stroke-width="7"/>
  </g>

</svg>
